<?xml version='1.0' encoding='utf-8'?>
<svg xmlns="http://www.w3.org/2000/svg" width="41.667in" height="31.25in" clip-rule="evenodd" fill-rule="evenodd" image-rendering="optimizeQuality" shape-rendering="geometricPrecision" text-rendering="geometricPrecision" version="1.1" viewBox="0 0 41667 31250"> <defs> <style type="text/css">.str0 {stroke:#373435;stroke-width:6.94;stroke-miterlimit:2.61313} .fil0 {fill:#373F47} .fil2 {fill:silver} .fil1 {fill:#373F47;fill-rule:nonzero}</style> </defs> <path class="fil0 str0" d="m30377 12504h6375.4c625.96 0 1138.1 512.12 1138.1 1138.1v2246.7h-8651.6v-2246.7c0-625.94 512.12-1138.1 1138.1-1138.1zm6490.3 1463c316.11 0 572.36 256.25 572.36 572.36s-256.25 572.36-572.36 572.36-572.36-256.25-572.36-572.36 256.25-572.36 572.36-572.36zm1023.2 2883v8666.9c0 625.94-512.12 1138.1-1138.1 1138.1h-6375.4c-625.96 0-1138.1-512.12-1138.1-1138.1v-8666.9h8651.6z"/> <path class="fil1" d="m24055 26123c0 293.76-238.18 531.98-531.98 531.98h-8865.6c-293.76 0-531.94-238.22-531.94-531.98v-54.91c0-293.76 238.18-531.98 531.94-531.98h1705.7v-1118.9h5314.4v1118.9h1845.5c293.8 0 531.98 238.22 531.98 531.98v54.91z"/> <path class="fil0" d="m5034.7 4594.6h27272c692.26 0 1258.6 566.39 1258.6 1258.6v17044c0 692.26-566.39 1258.6-1258.6 1258.6h-27272c-692.26 0-1258.6-566.39-1258.6-1258.6v-17044c0-692.25 566.39-1258.6 1258.6-1258.6zm559.45 2079.2h26153v15524h-26153v-15524z"/> <rect class="fil2 str0" x="5594.1" y="6673.8" width="26153" height="15524"/> </svg>